{
	"asset":{
		"generator":"Khronos glTF Blender I/O v4.0.44",
		"version":"2.0"
	},
	"scene":0,
	"scenes":[
		{
			"name":"Scene",
			"nodes":[
				0,
				1,
				2,
				3,
				4,
				5
			]
		}
	],
	"nodes":[
		{
			"mesh":0,
			"name":"\u676f\u8eab",
			"translation":[
				0,
				1.1233614683151245,
				0
			]
		},
		{
			"mesh":1,
			"name":"\u5e95\u5ea7",
			"scale":[
				1,
				0.053267598152160645,
				1
			],
			"translation":[
				0,
				-0.5169196128845215,
				0
			]
		},
		{
			"mesh":2,
			"name":"\u5e95\u5ea72",
			"translation":[
				0,
				-0.38706499338150024,
				0
			]
		},
		{
			"mesh":3,
			"name":"\u676f\u6746",
			"scale":[
				1,
				0.5014766454696655,
				1
			],
			"translation":[
				0,
				-0.3854694366455078,
				0
			]
		},
		{
			"mesh":4,
			"name":"\u5e95\u73af",
			"scale":[
				0.29410770535469055,
				0.29410770535469055,
				0.29410770535469055
			],
			"translation":[
				0,
				0.042830631136894226,
				0
			]
		},
		{
			"mesh":5,
			"name":"\u628a\u624b",
			"rotation":[
				-0.5,
				0.5,
				-0.5,
				0.5000000596046448
			],
			"translation":[
				-1.0258502960205078,
				1.655396819114685,
				-0.05243551731109619
			]
		}
	],
	"meshes":[
		{
			"name":"\u7403\u4f53",
			"primitives":[
				{
					"attributes":{
						"POSITION":0,
						"NORMAL":1,
						"TEXCOORD_0":2
					},
					"indices":3
				}
			]
		},
		{
			"name":"\u67f1\u4f53",
			"primitives":[
				{
					"attributes":{
						"POSITION":4,
						"NORMAL":5,
						"TEXCOORD_0":6
					},
					"indices":7
				}
			]
		},
		{
			"name":"\u67f1\u4f53.001",
			"primitives":[
				{
					"attributes":{
						"POSITION":8,
						"NORMAL":9,
						"TEXCOORD_0":10
					},
					"indices":7
				}
			]
		},
		{
			"name":"\u67f1\u4f53.003",
			"primitives":[
				{
					"attributes":{
						"POSITION":11,
						"NORMAL":12,
						"TEXCOORD_0":13
					},
					"indices":14
				}
			]
		},
		{
			"name":"\u8d1d\u585e\u5c14\u5706",
			"primitives":[
				{
					"attributes":{
						"POSITION":15,
						"NORMAL":16,
						"TEXCOORD_0":17
					},
					"indices":18
				}
			]
		},
		{
			"name":"\u8d1d\u585e\u5c14\u66f2\u7ebf",
			"primitives":[
				{
					"attributes":{
						"POSITION":19,
						"NORMAL":20,
						"TEXCOORD_0":21
					},
					"indices":22
				}
			]
		}
	],
	"accessors":[
		{
			"bufferView":0,
			"componentType":5126,
			"count":1120,
			"max":[
				0.9999997019767761,
				0.9113907217979431,
				0.9999993443489075
			],
			"min":[
				-0.9999990463256836,
				-1,
				-1
			],
			"type":"VEC3"
		},
		{
			"bufferView":1,
			"componentType":5126,
			"count":1120,
			"type":"VEC3"
		},
		{
			"bufferView":2,
			"componentType":5126,
			"count":1120,
			"type":"VEC2"
		},
		{
			"bufferView":3,
			"componentType":5123,
			"count":1632,
			"type":"SCALAR"
		},
		{
			"bufferView":4,
			"componentType":5126,
			"count":192,
			"max":[
				1,
				2.0031936168670654,
				1
			],
			"min":[
				-1,
				0.0031936168670654297,
				-1
			],
			"type":"VEC3"
		},
		{
			"bufferView":5,
			"componentType":5126,
			"count":192,
			"type":"VEC3"
		},
		{
			"bufferView":6,
			"componentType":5126,
			"count":192,
			"type":"VEC2"
		},
		{
			"bufferView":7,
			"componentType":5123,
			"count":372,
			"type":"SCALAR"
		},
		{
			"bufferView":8,
			"componentType":5126,
			"count":192,
			"max":[
				0.7367383241653442,
				0.03924429789185524,
				0.7367383241653442
			],
			"min":[
				-0.7367383241653442,
				-0.039244260638952255,
				-0.7367383241653442
			],
			"type":"VEC3"
		},
		{
			"bufferView":9,
			"componentType":5126,
			"count":192,
			"type":"VEC3"
		},
		{
			"bufferView":10,
			"componentType":5126,
			"count":192,
			"type":"VEC2"
		},
		{
			"bufferView":11,
			"componentType":5126,
			"count":448,
			"max":[
				0.2114325314760208,
				0.8640332221984863,
				0.2114325314760208
			],
			"min":[
				-0.2114325314760208,
				-0.011262502521276474,
				-0.2114325314760208
			],
			"type":"VEC3"
		},
		{
			"bufferView":12,
			"componentType":5126,
			"count":448,
			"type":"VEC3"
		},
		{
			"bufferView":13,
			"componentType":5126,
			"count":448,
			"type":"VEC2"
		},
		{
			"bufferView":14,
			"componentType":5123,
			"count":936,
			"type":"SCALAR"
		},
		{
			"bufferView":15,
			"componentType":5126,
			"count":1813,
			"max":[
				0.8399999737739563,
				0.060000013560056686,
				0.8399999737739563
			],
			"min":[
				-0.8399999737739563,
				-0.06000000983476639,
				-0.8399999737739563
			],
			"type":"VEC3"
		},
		{
			"bufferView":16,
			"componentType":5126,
			"count":1813,
			"type":"VEC3"
		},
		{
			"bufferView":17,
			"componentType":5126,
			"count":1813,
			"type":"VEC2"
		},
		{
			"bufferView":18,
			"componentType":5123,
			"count":10368,
			"type":"SCALAR"
		},
		{
			"bufferView":19,
			"componentType":5126,
			"count":481,
			"max":[
				0.6789594888687134,
				0.08289172500371933,
				0.016066230833530426
			],
			"min":[
				-0.23856547474861145,
				-0.060000039637088776,
				-0.5488194227218628
			],
			"type":"VEC3"
		},
		{
			"bufferView":20,
			"componentType":5126,
			"count":481,
			"type":"VEC3"
		},
		{
			"bufferView":21,
			"componentType":5126,
			"count":481,
			"type":"VEC2"
		},
		{
			"bufferView":22,
			"componentType":5123,
			"count":2592,
			"type":"SCALAR"
		}
	],
	"bufferViews":[
		{
			"buffer":0,
			"byteLength":13440,
			"byteOffset":0,
			"target":34962
		},
		{
			"buffer":0,
			"byteLength":13440,
			"byteOffset":13440,
			"target":34962
		},
		{
			"buffer":0,
			"byteLength":8960,
			"byteOffset":26880,
			"target":34962
		},
		{
			"buffer":0,
			"byteLength":3264,
			"byteOffset":35840,
			"target":34963
		},
		{
			"buffer":0,
			"byteLength":2304,
			"byteOffset":39104,
			"target":34962
		},
		{
			"buffer":0,
			"byteLength":2304,
			"byteOffset":41408,
			"target":34962
		},
		{
			"buffer":0,
			"byteLength":1536,
			"byteOffset":43712,
			"target":34962
		},
		{
			"buffer":0,
			"byteLength":744,
			"byteOffset":45248,
			"target":34963
		},
		{
			"buffer":0,
			"byteLength":2304,
			"byteOffset":45992,
			"target":34962
		},
		{
			"buffer":0,
			"byteLength":2304,
			"byteOffset":48296,
			"target":34962
		},
		{
			"buffer":0,
			"byteLength":1536,
			"byteOffset":50600,
			"target":34962
		},
		{
			"buffer":0,
			"byteLength":5376,
			"byteOffset":52136,
			"target":34962
		},
		{
			"buffer":0,
			"byteLength":5376,
			"byteOffset":57512,
			"target":34962
		},
		{
			"buffer":0,
			"byteLength":3584,
			"byteOffset":62888,
			"target":34962
		},
		{
			"buffer":0,
			"byteLength":1872,
			"byteOffset":66472,
			"target":34963
		},
		{
			"buffer":0,
			"byteLength":21756,
			"byteOffset":68344,
			"target":34962
		},
		{
			"buffer":0,
			"byteLength":21756,
			"byteOffset":90100,
			"target":34962
		},
		{
			"buffer":0,
			"byteLength":14504,
			"byteOffset":111856,
			"target":34962
		},
		{
			"buffer":0,
			"byteLength":20736,
			"byteOffset":126360,
			"target":34963
		},
		{
			"buffer":0,
			"byteLength":5772,
			"byteOffset":147096,
			"target":34962
		},
		{
			"buffer":0,
			"byteLength":5772,
			"byteOffset":152868,
			"target":34962
		},
		{
			"buffer":0,
			"byteLength":3848,
			"byteOffset":158640,
			"target":34962
		},
		{
			"buffer":0,
			"byteLength":5184,
			"byteOffset":162488,
			"target":34963
		}
	],
	"buffers":[
		{
			"byteLength":167672,
			"uri":"glass.bin"
		}
	]
}
